<svg width="851" height="851" viewBox="0 0 851 851" fill="none" xmlns="http://www.w3.org/2000/svg">
<path d="M579.075 405.875C573.762 395.373 570.996 383.769 571 372C571 331.813 602.25 303.25 646 297C697.025 289.712 718.912 261.588 733.5 247C777.25 409.5 696 447 646 447C632.835 447.003 619.902 443.541 608.5 436.963" stroke="#363636" stroke-width="33" stroke-linecap="round" stroke-linejoin="round"/>
<path d="M521 472C527.25 434.5 551.725 411.2 608.5 397C648.713 386.95 676.788 361.75 696 335.187" stroke="#363636" stroke-width="33" stroke-linecap="round" stroke-linejoin="round"/>
<path d="M395.061 239.345C386.519 239.345 378.186 241.998 371.212 246.939C364.238 251.881 358.965 258.867 356.121 266.936C354.165 271.934 350.346 275.974 345.472 278.203C340.597 280.432 335.048 280.675 329.998 278.881C324.947 277.087 320.791 273.397 318.407 268.59C316.023 263.783 315.598 258.235 317.221 253.12C321.422 241.236 328.278 230.47 337.266 221.646C346.254 212.821 357.137 206.171 369.083 202.204C381.029 198.236 393.722 197.056 406.193 198.753C418.664 200.45 430.583 204.98 441.039 211.997C451.495 219.013 460.212 228.33 466.525 239.237C472.837 250.144 476.577 262.352 477.46 274.928C478.343 287.504 476.345 300.116 471.618 311.8C466.892 323.484 459.562 333.932 450.189 342.345L448.496 343.876C439.411 352.025 431.194 359.347 424.958 367.289C418.351 375.479 415.75 382.139 415.75 388.096C415.75 397.155 420.705 405.469 428.675 409.771L649.434 528.904C662.33 535.887 672.534 546.977 678.431 560.421C684.329 573.865 685.584 588.895 681.997 603.133C678.41 617.372 670.187 630.006 658.628 639.037C647.069 648.069 632.834 652.982 618.174 653H171.865C157.194 653 142.943 648.094 131.372 639.058C119.801 630.023 111.572 617.377 107.992 603.124C104.411 588.872 105.683 573.831 111.606 560.385C117.529 546.94 127.764 535.86 140.688 528.904L323.333 430.454C328.133 428.049 333.68 427.612 338.797 429.234C343.914 430.856 348.2 434.411 350.745 439.145C353.29 443.878 353.895 449.419 352.432 454.591C350.969 459.764 347.552 464.163 342.906 466.855L160.22 565.305C155.379 567.892 151.541 572.027 149.319 577.052C147.096 582.076 146.616 587.702 147.956 593.032C149.296 598.361 152.377 603.089 156.711 606.46C161.044 609.832 166.379 611.653 171.865 611.635H618.257C623.725 611.616 629.031 609.775 633.338 606.401C637.645 603.027 640.707 598.312 642.042 593C643.377 587.689 642.909 582.084 640.71 577.069C638.512 572.054 634.709 567.915 629.902 565.305L409.101 446.173C398.637 440.515 389.892 432.133 383.787 421.911C377.682 411.69 374.444 400.007 374.414 388.096C374.414 368.985 383.168 353.39 392.583 341.518C401.173 330.722 411.909 321.125 420.416 313.514L422.646 311.528C428.877 305.939 433.268 298.586 435.235 290.442C437.203 282.298 436.655 273.748 433.665 265.922C430.675 258.097 425.382 251.366 418.489 246.62C411.595 241.874 403.426 239.338 395.061 239.345Z" fill="#363636"/>
</svg>
